<svg id="Calque_1" data-name="Calque 1" xmlns="http://www.w3.org/2000/svg" viewBox="0 0 473.29 282.69"><defs><style>.cls-1{fill:#cd90fd;}.cls-2{fill:#c480ff;}.cls-3{fill:#37365f;}.cls-4{fill:#3a346a;}.cls-5{fill:#cb8efe;}.cls-6{fill:#c683ff;}.cls-7{fill:#3a3567;}.cls-8{fill:#393562;}.cls-9{opacity:0.88;}.cls-10{fill:#fe2f06;}.cls-11{fill:#fe471f;}.cls-12{fill:#fe350b;}.cls-13{fill:#fe340b;}.cls-14{fill:#fe3d17;}.cls-15{fill:#fe3e15;}.cls-16{fill:#911604;}.cls-17{fill:#290200;}.cls-18{fill:#fe3e16;}.cls-19{fill:#fe3108;}.cls-20{opacity:0.89;}.cls-21{fill:#f823bc;}.cls-22{fill:#30011e;}.cls-23{fill:#e8a334;}.cls-24{fill:#493c2c;}.cls-25{fill:#db4c95;}.cls-26{fill:#512d3d;}.cls-27{fill:#6ac4e5;}.cls-28{fill:#303245;}</style></defs><title>adobe2</title><path class="cls-1" d="M9.84,126,2,126.08a1.75,1.75,0,0,1-2-1.46,1.63,1.63,0,0,1,0-.54V2.27C0,.69.76,0,2.28.1H121.64c5.16,0,4.4-.89,4.4,4.39-.15,11.73-.55,23.29-.58,34.81,0,1.46.45,1.43.51,4.55-1.6-1.52-1.23-3.52-1.24-5.38-.06-7.61-.13-15.23,0-22.85.07-3.23-.07-6-4.11-6.46-.47-.06-.86-.63-1.34-.9a7.2,7.2,0,0,0-1.46-.18Q75,7.95,32.13,7.94c-6.16.17-12.32,0-18.48.07-5.54.05-5.81.26-5.81,5.79V96.33c0,7.39-.1,14.78.09,22.15,0,1.59,1.27,2.25,2.19,3.21C11.57,123.14,12,124.74,9.84,126Z" transform="translate(0.48)"/><path class="cls-2" d="M120.21,6.64c1.7,2.61,1.7,2.61,5.49,1,.48,12.18,0,24.17.28,36.14q0,39.48.07,79v2c0,1.16-.55,1.57-1.83,1.57q-57.16-.25-114.35-.41c1-1.76,1.12-3.24-1.06-4.22a3.78,3.78,0,0,1-2.21-1.6c2.14-1.72,4.7-1.25,7.12-1.24q49.55.21,99.1.15c6.06,0,6.2-.15,6.2-6.24V12.87C119,10.74,118.54,8.5,120.21,6.64Z" transform="translate(0.48)"/><path class="cls-3" d="M32,6.6c1.08-.06,2.17-.17,3.26-.17h80.78c1.09,0,2.18.13,3.27.2.71,1.29.36,2.69.36,4V115.11c0,4.71,0,4.73-4.64,4.73h-74c-1.32,0-2.75.44-4-.63.84-1.89,2.64-1.63,4.17-1.88,4.47-.76,9-.87,13.49-1.52,2.83-.41,4.07-1.8,4.07-4.61,0-3.57-.06-7.14,0-10.7.09-3.78,0-7.19-3.8-9.7-2.46-1.63-2.53-5-3.38-7.77-1.67-5.38-2.19-5.7-7.79-6-2.46-.11-5.31.9-7.13-1.85a1.61,1.61,0,0,1,.5-1.39c4.89-1.43,9.84-.85,14.79-.41,3.4,2.36,3,6.55,4.4,9.86,1,2.42,2.19,3.89,5,3.84,3.64-.07,4.2-.58,3.08-4-2.4-7.4-4.82-14.8-7.14-22.23C55.49,55,53.47,49.18,51.51,43.36c-.52-1.54-.85-3.19-2.14-4.36-2-1.28-4.29-.48-6.43-.72-1.57-.17-3.35.25-4.35-1.54,9-6.06,15.95-2.57,20.31,10.92V14.84c0-2.9-1.87-3.61-4.23-4-6.28-1-12.62-1.1-18.83-2.1C34.39,8.5,32.39,8.93,32,6.6Z" transform="translate(0.48)"/><path class="cls-4" d="M32,6.6C34.11,8.27,36.77,7.72,39,8A104,104,0,0,0,50,9c2.63.09,5.09,1,7.71,1,1.44,0,2.17,1,2.28,2.4V50.27c-1.61.44-1.71-.86-2-1.59-.88-2.29-1.58-4.66-2.37-7-1.88-5.56-3.65-6.79-9.4-6.1a41,41,0,0,0-6.75,1.56h7.6c1.32,0,2.78-.45,3.87.78-2.14,1.82-4.73,1.16-7.11,1.08-3.25-.11-4.62,1.49-5.5,4.34-4.06,13.2-8.56,26.3-12.55,39.57-.39,1.29-1.66,2.87.42,3.92s5.24,0,6-2c1-2.56,1.54-5.27,2.55-7.81.42-1.07.07-3,2.26-2.67.2,1.21,1,1.46,2.11,1.45h7c4.13.06,4.8.59,6,4.57.58,2,1.16,3.93,1.7,5.9.67,2.46,1.5,4.71,4.47,5.28,1.47.28,1.79,1.52,1.79,2.86v19.33c0,2.3-.95,2.91-3.83,3.21-6.07.62-12.14,1.27-18.7,2a7,7,0,0,0,3.77.49h73.26c4.8,0,4.81,0,4.81-5V6.59h.86V115.13c0,5.63.49,5-5.09,5H6.66c-.06-1.36-.17-2.73-.17-4.09q-.11-52.5-.1-105c0-5-.41-4.59,4.69-4.57C18.09,6.45,25.06,6.54,32,6.6Z" transform="translate(0.48)"/><path class="cls-5" d="M37,74.35c-1.87,3.38-2.51,7.16-3.57,10.8-.64,2.19-1.63,3.21-4,3a63.66,63.66,0,0,0-6.48,0c1.23-3.88,2.27-7.25,3.35-10.61Q32.14,59.38,38,41.23C39,37.74,39,37.74,42.39,37.74c2.87,0,5.74.09,8.61.14Q58.4,60.55,65.67,83.19C67.24,88,67.21,88,62,88.05s-5.08,0-6.82-5.12c-1-2.9-1.23-6-2.77-8.77a53.51,53.51,0,0,0-15.27,0Z" transform="translate(0.48)"/><path class="cls-6" d="M70.59,69.11a19.5,19.5,0,0,1,2.93-10.27c4.57-7.75,13.48-9.53,20.83-7,6,2.09,8.49,7.1,9.29,13,1,7.5.9,7.51-6.59,7.52H82.25c-2.59,0-3.2.87-2.24,3.23,1.57,3.84,4.72,5.63,8.68,5.9a27.18,27.18,0,0,0,9.38-.68c2.52-.71,2.56-.57,3.12,2.09a9.81,9.81,0,0,0,.34,1.61c.55,1.35-.06,2.13-1.27,2.49-6.7,2-13.49,2.94-20.08-.1C73,83.64,70.39,77.41,70.59,69.11Z" transform="translate(0.48)"/><path class="cls-4" d="M37.16,74.2c1.41-1.15,3.09-.63,4.61-.56,3.56.16,7.16-.73,10.66.52Z" transform="translate(0.48)"/><path class="cls-7" d="M51,66.67a94.35,94.35,0,0,1-12.47-.17c2-6.85,4-13.44,6.15-20.68C46.91,53.16,48.91,59.74,51,66.67Z" transform="translate(0.48)"/><path class="cls-8" d="M94.86,65.92H81.22c-1.31,0-1.62-.69-1.46-1.84a8.77,8.77,0,0,1,7.56-7c3.47-.27,6.4,1.94,7.48,5.67A4,4,0,0,1,94.86,65.92Z" transform="translate(0.48)"/><g class="cls-9"><path class="cls-10" d="M303.5,74.74v50.08c0,.67.13,1.2-.94,1.2q-35.62-.06-71.24,0h-.46a3.14,3.14,0,0,0-1.68-.31H217.39a3.19,3.19,0,0,1-1.89-.41c-.2-.13-.38-.3-.31-.56a.44.44,0,0,1,.44-.31,2.12,2.12,0,0,0,2.06-1.65,1.44,1.44,0,0,1,1.59-.72,73.57,73.57,0,0,0,10.07,0c1.88-.14,3.78.15,5.63-.08.13-.09.11-.13,0-.13-4.56.14-9.08-.64-13.66-.52-6.87.18-13.75,0-20.63,0a3.59,3.59,0,0,1-1.38-.13c-.22-.09-.58-.15-.32-.55a3.69,3.69,0,0,1,2-.23H295.2c2.66,0,2.66,0,2.66-2.71v-47a6.72,6.72,0,0,1,.12-2c.65-.24.82-.13,1,.63a7,7,0,0,0,.33,2.31,2.43,2.43,0,0,0,.2-1.38,58.43,58.43,0,0,1,.43-8.67,8.45,8.45,0,0,0-.13-2.3,2.61,2.61,0,0,1,.37-2c.49-.64,1.09-.58,1.45.13a1.19,1.19,0,0,1,.14.56c-.13,2,.61,3.91-.1,5.86a2.5,2.5,0,0,0,.05,1.62c.17-.55.06-1.14.19-1.7.09-.37.18-.84.65-.82s.61.48.59.86c-.12,2.12.35,4.21.17,6.34A14.73,14.73,0,0,0,303.5,74.74Z" transform="translate(0.48)"/><path class="cls-11" d="M174.79,53.36v-52c0-1.06.27-1.31,1.32-1.31h53.24a52,52,0,0,0,5.3.19c1.09,0,2,.16,2.25,1.47.1.61.66.68,1.15.79s.84.21.8.68-.48.54-.88.6a14.22,14.22,0,0,1-1.85,0,17.92,17.92,0,0,1,2.2.13c.59.13,1.17.36,1.25,1s-.43.93-1,1.1a13.33,13.33,0,0,1-2,.06H182.39a3,3,0,0,0-1.8.23c-.56.53-.4,1.23-.4,1.86V50.78a16.68,16.68,0,0,1,0,2c-.57,1-.11,2.19-.41,3.26a5.54,5.54,0,0,1-.07.57c-.1.42-.2.92-.72.92s-.67-.54-.68-.93c-.07-1.93-.63-3.81-.58-5.74a2.29,2.29,0,0,0-.25-1.54c-.57.46-.41,1-.31,1.55C177.39,52.52,176.55,53.44,174.79,53.36Z" transform="translate(0.48)"/><path class="cls-12" d="M180.32,6c.45-.34,1-.18,1.45-.18h57a6,6,0,0,1,2.72-.34h44.08c2.2,0,4.4.1,6.61,0,.8,0,1.59,0,1.48-1.22-.05-.44.33-.7.75-.76a4.26,4.26,0,0,1,2.45.1c-.25-.18-.25-.19-.77-.2-1.43,0-2.87-.09-4.29,0-1.75.17-3.33-.5-5-.82a.5.5,0,0,1-.55-.49c0-.34.29-.42.55-.5A3.81,3.81,0,0,0,288,1.26a3.17,3.17,0,0,0-1.67-.16,4.9,4.9,0,0,1-1.62.09c-1.81-.56-3.67-.34-5.52-.38-.58,0-1.28,0-1.49-.76q12.52,0,25.05,0c.57,0,.77.19.7.73a2,2,0,0,0,0,.35v73.6a.88.88,0,0,1-.43-.88c.09-1.87,0-3.73.06-5.6.08-1.64-.32-3.41-.29-5.38a1.26,1.26,0,0,0-.7,1.24v1.63c0,.29.06.7-.38.69a.6.6,0,0,1-.52-.67,7,7,0,0,1,.11-2.29,5.16,5.16,0,0,0,.16-2.7,17.44,17.44,0,0,1-.06-2.89c0-.38-.14-.74-.5-.82s-.54.34-.71.62a1.54,1.54,0,0,0-.17,1.24c.51,1.73.13,3.46-.06,5.15-.27,2.32-.09,4.62-.19,6.93v.81a.48.48,0,0,1-.39.5c-.28,0-.4-.17-.52-.38a4.63,4.63,0,0,1-.22-2.15c0-.49.13-1-.48-1.31-.51-.61-.31-1.33-.31-2V8.57c0-2.19,0-2.19-2.24-2.19H182.39C181.71,6.37,180.93,6.61,180.32,6Z" transform="translate(0.48)"/><path class="cls-13" d="M198.88,120.61c.39.39.88.22,1.32.22h16.13c3.42,0,6.85-.14,10.26,0,3,.16,6,.54,9,.43.22,0,.5,0,.57.26s-.26.39-.5.49a5,5,0,0,1-2.61.25c-2.37-.26-4.7.27-7,.12s-4.52.35-6.77-.18c-.7-.16-1.49.13-1.49.9,0,1.4-.82,1.46-1.83,1.4h-.75a2.27,2.27,0,0,0,1.94.69h12.24c.62,0,1.16,0,1.48.66H176c-1,0-1.32-.26-1.31-1.31.07-6.22,0-12.44.07-18.66a37.56,37.56,0,0,0,.47-4.22c0-.53-.21-1.28.53-1.29s.7.71.66,1.28a1,1,0,0,0,.07.59,6.64,6.64,0,0,1,.48-2.49c.15-.27.28-.58.64-.6a.8.8,0,0,1,.77.6,4.63,4.63,0,0,1,.45,2.76,20.45,20.45,0,0,0-.07,4.14c.16-1.78,0-3.56.21-5.34a3.75,3.75,0,0,1,.42-1.57c.21-.34.45-.4.66,0a5.87,5.87,0,0,1,.1,1.62v17.16c0,1.57.15,1.71,1.74,1.71H197.2C197.79,120.29,198.39,120.14,198.88,120.61Z" transform="translate(0.48)"/><path class="cls-14" d="M277.79.06c1.24.81,2.62.3,3.94.38.1,0,.24-.13.32-.1,2.11.78,4.33.14,6.46.53a4.07,4.07,0,0,1,.58.22c-.65,1-1.75.63-2.61,1.05,1.38-.16,2.38.95,3.73.91,1.89,0,3.79,0,5.68,0a3,3,0,0,1,2,.79c.25.18.41.4.14.66a.47.47,0,0,1-.79-.06c-.74-1.33-1.93-.45-2.9-.61-.29-.05-.53.23-.28.65.59,1-.2,1.31-.88,1.34a51.56,51.56,0,0,1-5.56,0c-.63,0-1.21.08-1.82.08h-47c.2-.29.72-.46.5-.93a1.29,1.29,0,0,0-1-.65c-.61-.07-1.24,0-1.85-.05A10.26,10.26,0,0,1,235.23,4a1,1,0,0,1,1.08-.45,16.68,16.68,0,0,0,2,0,.37.37,0,0,0,.41-.33h0c0-.22-.21-.3-.42-.33-.37-.06-.75-.1-1.13-.17s-.65-.26-.6-.7c.15-1.33-.81-1.48-1.7-1.44-1.67.07-3.31-.26-5-.27a1.75,1.75,0,0,1-.53-.18h47.23A4.49,4.49,0,0,1,277.79.06Z" transform="translate(0.48)"/><path class="cls-15" d="M179.87,99.5a5.35,5.35,0,0,0-.68,3.54c.17,1.31-.17,2.59,0,3.88,0,.33.05.81-.43.78s-.24-.49-.25-.77a13.41,13.41,0,0,1,0-4,4.89,4.89,0,0,0-.25-2.78c-.07-.32-.19-.64-.51-.7s-.38.38-.48.64a2.58,2.58,0,0,0-.24,2.1.52.52,0,0,1-.26.69h0a.48.48,0,0,1-.54,0,.49.49,0,0,1-.22-.67s0,0,0,0a1.14,1.14,0,0,0-.21-1.55c-.42.13-.38.46-.3.74.41,1.49-.38,2.84-.45,4.28,0,.12-.17.25-.25.37V63.79c.31-1.81.33-3.65.56-5.46a4.38,4.38,0,0,1,.12-1.14,2.67,2.67,0,0,0-.68-3.14v-.69c.38-.17.75-.35,1.14-.5.89-.33,1.39-.82.88-1.82a2,2,0,0,1,0-1.67c.14-.35.26-.68.71-.59s.51.45.47.81c-.24,2.2.48,4.34.47,6.53a2.44,2.44,0,0,0,.49,1.43,4.68,4.68,0,0,0,.54-3c0-.59-.09-1.06.38-1.46a1.91,1.91,0,0,1,.31,1.43V98A1.86,1.86,0,0,1,179.87,99.5Z" transform="translate(0.48)"/><path class="cls-11" d="M174.79,54.05a1.77,1.77,0,0,1,1.29,2.13l0,.13c-.56,2-.47,4.18-.82,6.25-.07.45.09,1-.43,1.23Z" transform="translate(0.48)"/><path class="cls-16" d="M179.87,99.5V7.86c0-.64-.14-1.33.43-1.85H296.63c1.53,0,1.54,0,1.54,1.57V118.52c0,2,0,2.07-2.06,2.07H181.51c-1.51,0-1.63-.12-1.63-1.66Q179.88,109.23,179.87,99.5Z" transform="translate(0.48)"/><path class="cls-10" d="M302.44,57.93c.13,0,.19,0,.2.06a1.64,1.64,0,0,1,0,1.63.32.32,0,0,1-.3,0C301.94,59,302.5,58.52,302.44,57.93Z" transform="translate(0.48)"/><path class="cls-12" d="M286.19,4.09c2.13-.38,4.18-.06,6.46-.14C291.19,4.84,287.15,4.89,286.19,4.09Z" transform="translate(0.48)"/><path class="cls-11" d="M241.78,5.12c1.76-1,3.57.2,5.37-.08C245.39,5.07,243.6,5.57,241.78,5.12Z" transform="translate(0.48)"/><path class="cls-11" d="M249.16,3c.39.11,1.14-.17,1.05.45-.06.45-.86.44-1.37.47s-.92,0-.85-.5S248.73,3.11,249.16,3Z" transform="translate(0.48)"/><path class="cls-11" d="M247.83,4.86a2,2,0,0,1,2.83.09l.07.08A5.12,5.12,0,0,0,247.83,4.86Z" transform="translate(0.48)"/><path class="cls-11" d="M246.82,1.31A2.44,2.44,0,0,1,245,1.19C245.93.85,245.93.85,246.82,1.31Z" transform="translate(0.48)"/><path class="cls-11" d="M176.68,57.15a7.44,7.44,0,0,1,.09,2.49,1.71,1.71,0,0,1-.18-2.4Z" transform="translate(0.48)"/><path class="cls-11" d="M178.84,59.74a2.07,2.07,0,0,1,.08.42c-.06.4.18.85-.18,1.19-.14.12-.32,0-.38-.16a1,1,0,0,1,.33-1.37Z" transform="translate(0.48)"/><path class="cls-17" d="M239.15,6.29h57.42c1.05,0,1.18.38,1.18,1.27V117.7c0,2.48,0,2.48-2.49,2.48H183.05a5.38,5.38,0,0,0-1.5,0c-1.2.33-1.25-.31-1.25-1.23V7.65c0-1.13.33-1.39,1.43-1.39Q210.4,6.31,239.15,6.29Z" transform="translate(0.48)"/><path class="cls-18" d="M221,30.18c1.62,0,3.25.06,4.87,0,1-.05,1.4.35,1.67,1.29,2.41,8.27,4.86,16.47,7.31,24.72q4.72,15.94,9.43,31.91c.51,1.71.5,1.71-1.32,1.71h-7.42a1.29,1.29,0,0,1-1.46-1.1v0c-1.27-4.76-2.6-9.49-3.86-14.25-.26-1-.57-1.43-1.74-1.41-4.87.09-9.75.07-14.62,0-1,0-1.31.3-1.54,1.22-1.17,4.66-2.45,9.29-3.62,14-.3,1.22-.82,1.71-2.14,1.63-2.16-.13-4.33,0-6.5,0-1.24,0-1.32-.11-1-1.36q3.73-13.19,7.49-26.38,3.86-13.49,7.7-26.92a20.63,20.63,0,0,0,.48-4c.06-.76.36-1.07,1.16-1C217.58,30.22,219.29,30.18,221,30.18Z" transform="translate(0.48)"/><path class="cls-19" d="M248.53,70.15V54c0-1.43-.11-2.85-.23-4.28a1.45,1.45,0,0,1,1-1.62c2.48-.81,5-1.62,7.48-2.31A32.15,32.15,0,0,1,265,44.68c5.33,0,10.33,1,13.55,5.89A14.22,14.22,0,0,1,281,58.38c.08,10,.05,20.09.08,30.13,0,.89-.31,1.24-1.22,1.23h-7.31c-.79,0-1.15-.32-1.19-1.06V60.63a8.27,8.27,0,0,0-1.24-4.72,5.35,5.35,0,0,0-4-2.27,16.53,16.53,0,0,0-6.41.64.8.8,0,0,0-.62.85V88c0,1.57-.1,1.67-1.62,1.68h-7.39c-1.47,0-1.55-.09-1.55-1.61v-18Z" transform="translate(0.48)"/><path class="cls-17" d="M221.23,39.41c2.08,8,4.14,16,6.26,24,.19.75-.08.76-.64.76H215.72c-.72,0-.82-.18-.64-.87q2.56-9.88,5-19.79c.35-1.37.63-2.75.95-4.13Z" transform="translate(0.48)"/></g><g class="cls-20"><path class="cls-21" d="M409.61,124.53H349.43c-1.92,0-2.53-.46-2.52-2.46q.09-59,0-118c0-1.83.44-2.39,2.34-2.39q60.54.09,121.07,0c1.72,0,2.28.39,2.28,2.2q-.09,59.23,0,118.47c0,1.9-.7,2.16-2.34,2.16Q439.93,124.5,409.61,124.53ZM409.93,8h-53.8c-2,0-2.65.36-2.65,2.54q.12,52.72,0,105.47c0,1.73.29,2.41,2.27,2.41q54.15-.11,108.3,0c2,0,2.29-.64,2.29-2.41q-.07-52.85,0-105.7c0-2-.64-2.31-2.41-2.31Q437,8.06,409.93,8Z" transform="translate(0.48)"/><path class="cls-22" d="M409.93,8h54c1.77,0,2.41.34,2.41,2.31q-.09,52.85,0,105.7c0,1.77-.33,2.41-2.29,2.41q-54.15-.11-108.3,0c-2,0-2.27-.68-2.27-2.41q.07-52.74,0-105.47c0-2.18.66-2.55,2.65-2.54C374.06,8.06,392,8,409.93,8Zm-21,58.13c.42.76.66,1.15.86,1.56,3.24,6.81,6.51,13.6,9.68,20.43.78,1.68,1.68,2.61,3.72,2.41a40.4,40.4,0,0,1,6.6,0c2.26.15,2.31-.57,1.38-2.34-4.74-9-9.34-18.15-14.12-27.17a5,5,0,0,1,0-5.39c4.55-8.43,8.87-17,13.35-25.44.81-1.52.72-2.07-1.14-2a33.31,33.31,0,0,1-5.65,0c-2.25-.25-3.35.67-4.25,2.67-3.09,6.93-6.36,13.78-9.65,20.83-.34-.66-.61-1.13-.84-1.62-3.15-6.67-6.33-13.33-9.4-20a2.59,2.59,0,0,0-2.83-1.83,69.67,69.67,0,0,1-7.08,0c-2-.09-2.27.48-1.36,2.25,4.41,8.58,8.66,17.26,13.15,25.8a5.61,5.61,0,0,1,0,6c-4.63,8.56-9.05,17.24-13.54,25.88-1.19,2.28-1.18,2.29,1.48,2.3,2,0,3.94-.13,5.9,0s2.8-.53,3.57-2.23C382,81,385.39,73.74,388.9,66.16Zm62.46-7.55c0-10.56-.06-19.29,0-28,0-1.9-.54-2.48-2.38-2.34a41.35,41.35,0,0,1-5.89,0c-1.63-.1-2.24.43-2.19,2.11.11,3.22,0,6.45,0,9.67,0,3.7,0,3.67-3.64,3.76-8.76.21-15.42,4-19.41,11.88-3.22,6.36-3.37,13.13-1.7,20,1.88,7.72,6.6,12.75,14.35,14.6,6.88,1.65,13.55.48,20-2.25,1-.43,1.13-1.06,1.06-2C451.05,76.26,451.64,66.51,451.39,58.61Z" transform="translate(0.48)"/><path class="cls-21" d="M388.9,66.16C385.37,73.76,382,81,378.67,88.27c-.77,1.7-1.72,2.39-3.57,2.23s-3.93,0-5.9,0c-2.66,0-2.67,0-1.48-2.3,4.49-8.64,8.91-17.32,13.54-25.88a5.61,5.61,0,0,0,0-6c-4.49-8.54-8.74-17.22-13.15-25.8-.91-1.77-.67-2.34,1.36-2.25a69.67,69.67,0,0,0,7.08,0,2.59,2.59,0,0,1,2.84,1.78c3.07,6.71,6.25,13.37,9.4,20,.23.49.5,1,.84,1.62,3.29-7,6.56-13.9,9.65-20.83.9-2,2-2.92,4.25-2.67a33.31,33.31,0,0,0,5.65,0c1.86-.1,1.95.45,1.14,2-4.48,8.46-8.8,17-13.35,25.44A5,5,0,0,0,397,61c4.78,9,9.38,18.13,14.12,27.17.93,1.77.88,2.49-1.38,2.34a40.4,40.4,0,0,0-6.6,0c-2,.2-2.94-.73-3.72-2.41-3.17-6.83-6.44-13.62-9.68-20.43C389.56,67.31,389.32,66.92,388.9,66.16Z" transform="translate(0.48)"/><path class="cls-21" d="M451.39,58.61c.22,7.9-.37,17.65.29,27.39.07,1-.05,1.59-1.06,2-6.46,2.73-13.13,3.9-20,2.25-7.75-1.85-12.47-6.88-14.35-14.6-1.67-6.85-1.52-13.62,1.7-20,4-7.86,10.65-11.67,19.41-11.88C441,43.68,441,43.71,441,40c0-3.22.07-6.45,0-9.67,0-1.68.56-2.21,2.19-2.11a41.35,41.35,0,0,0,5.89,0c1.84-.14,2.4.44,2.38,2.34C451.39,39.32,451.39,48.05,451.39,58.61Zm-10.45,8.54c0-4.17-.08-8.34,0-12.5.05-1.67-.65-2.18-2.13-2.32A11.26,11.26,0,0,0,427,59.74a21.82,21.82,0,0,0-.3,14.55c1.71,5.52,6,8.25,11.67,7.74,1.79-.16,2.8-.61,2.68-2.83-.23-4-.07-8-.07-12Z" transform="translate(0.48)"/><path class="cls-22" d="M441,67.15c0,4-.16,8,.07,12,.12,2.22-.89,2.67-2.68,2.83-5.71.51-10-2.22-11.67-7.74a21.8,21.8,0,0,1,.3-14.5,11.26,11.26,0,0,1,11.89-7.38c1.48.14,2.18.65,2.13,2.32C440.89,58.81,441,63,441,67.15Z" transform="translate(0.48)"/></g><g id="adobe"><path class="cls-23" d="M127.29,219v59.58c0,4.06,0,4.09-4.08,4.08L3.62,282.54c-.69,0-1.39,0-2.08,0-1.39.05-2-.59-2-2,0-1,0-1.94,0-2.92L-.38,159.7c0-.56,0-1.11,0-1.67C-.3,155-.3,154.92,3,154.89c4.44,0,8.89,0,13.33,0l105.42-.08h2.08c3.57.07,3.62.07,3.62,3.82q0,30.21,0,60.41Zm-6.2-.06h0q0-27.28,0-54.58c0-3.21-.06-3.21-3.17-3.29h-1.25q-53.13,0-106.26.08c-4.75,0-4.44-.53-4.44,4.52q0,40,0,80c0,9,0,18.06,0,27.08,0,3.36.06,3.41,3.49,3.43,8.06,0,16.11,0,24.17,0l83.34.09c4.13,0,4.13,0,4.16-4,0-.69,0-1.39,0-2.08Q121.09,244.58,121.09,219Z" transform="translate(0.48)"/><path class="cls-24" d="M121.09,219v51.25c0,.69,0,1.39,0,2.08,0,4,0,4-4.16,4l-83.34-.09c-8.06,0-16.11,0-24.17,0-3.42,0-3.48-.06-3.49-3.43,0-9,0-18.06,0-27.08q0-40,0-80c0-5.05-.31-4.51,4.44-4.52l106.26-.08c.42,0,.83,0,1.25,0,3.1.07,3.16.08,3.17,3.29q0,27.28,0,54.58S121.08,219,121.09,219ZM78.35,243.92c.48-1.47-.4-2.71-.81-4q-6-18.6-12.05-37.15c-.9-2.75-.9-6.44-3.15-7.91s-5.94-.32-9-.53c-1.88-.13-2.8.72-3.21,2.46-1.54,6.52-4.71,12.48-6.55,18.9-2.48,8.65-5.16,17.25-7.75,25.87-.23.78-.71,1.53-.34,2.4a3.54,3.54,0,0,0,2.38.44c6.62.17,6.6.16,8.6-6.33.77-2.5,1-5.73,2.68-7.25,1.93-1.73,5.32-.61,8.06-.58,9.14.1,6.69-1.52,9.52,6.79,2.7,7.94,2.59,8,10.88,7.23C77.88,244.28,78.1,244.06,78.35,243.92Zm4.19-17.82c0,4.29,0,8.59,0,12.88,0,6.07-.73,5.35,5.68,5.37,3.44,0,3.5,0,3.51-3.39,0-8.86.08-17.73,0-26.59-.07-6.58,1.61-6.26-6.54-6.31-2,0-2.7.69-2.67,2.67C82.6,215.85,82.55,221,82.54,226.1ZM87.06,203a4.62,4.62,0,0,0,5-4.78A4.71,4.71,0,0,0,87,193.39c-3,0-5.06,2-5,4.84S83.94,202.94,87.06,203Z" transform="translate(0.48)"/><path class="cls-23" d="M78.35,243.92a2.35,2.35,0,0,1-.71.38c-8.29.76-8.18.72-10.88-7.23-2.83-8.32-.38-6.69-9.52-6.79-2.74,0-6.13-1.15-8.06.58-1.7,1.52-1.9,4.75-2.68,7.25-2,6.48-2,6.49-8.6,6.33a3.54,3.54,0,0,1-2.38-.44c-.37-.87.11-1.62.34-2.4,2.59-8.62,5.26-17.22,7.75-25.87,1.85-6.43,5-12.38,6.55-18.9.41-1.74,1.33-2.59,3.21-2.46,3,.21,6.58-1,9,.53s2.25,5.17,3.15,7.91Q71.57,221.37,77.54,240C78,241.21,78.83,242.45,78.35,243.92ZM55.84,203.1c-.42,4.51-1.88,8.61-3.12,12.77-.51,1.72-1.08,3.43-1.6,5.15-.4,1.34,0,2.17,1.52,2.18q4.15,0,8.31,0c1.15,0,1.95-.4,1.53-1.74q-2.77-8.91-5.61-17.79C56.81,203.53,56.46,203.45,55.84,203.1Z" transform="translate(0.48)"/><path class="cls-23" d="M82.54,226.1c0-5.12.06-10.25,0-15.37,0-2,.7-2.68,2.67-2.67,8.15.05,6.47-.27,6.54,6.31.09,8.86,0,17.73,0,26.59,0,3.34-.07,3.41-3.51,3.39-6.41,0-5.63.7-5.68-5.37C82.52,234.69,82.54,230.39,82.54,226.1Z" transform="translate(0.48)"/><path class="cls-23" d="M87.06,203c-3.12,0-5.13-1.89-5.14-4.74s2-4.81,5-4.84A4.7,4.7,0,0,1,92,198.21,4.62,4.62,0,0,1,87.06,203Z" transform="translate(0.48)"/><path class="cls-24" d="M55.84,203.1c.62.35,1,.43,1,.6q2.84,8.88,5.61,17.79c.42,1.34-.38,1.74-1.53,1.74q-4.16,0-8.31,0c-1.52,0-1.92-.85-1.52-2.18.51-1.72,1.08-3.43,1.6-5.15C54,211.71,55.42,207.61,55.84,203.1Z" transform="translate(0.48)"/><path class="cls-25" d="M408.55,281.41H350.64c-1.11,0-2.22-.05-3.33,0-1.6.06-2.28-.69-2.21-2.25,0-.83,0-1.67,0-2.5q0-59.16.08-118.31a20.62,20.62,0,0,0,0-2.08c-.18-1.93.57-2.88,2.6-2.71,1,.08,1.94,0,2.91,0l116.65,0c6.13,0,5.47-.47,5.47,5.25q0,58.95,0,117.89c0,5.29.4,4.82-5.06,4.82q-26.86,0-53.74-.08h-5.42ZM409,159.87v0q-27.08,0-54.16,0c-3.62,0-3.66,0-3.66,3.6q0,54,0,107.91c0,3.61,0,3.61,3.64,3.66h.83l106.66.07c5,0,4.47.06,4.47-4.54q0-53.12,0-106.24c0-1,0-1.94,0-2.92a1.41,1.41,0,0,0-1.52-1.56c-1.11,0-2.22,0-3.33,0Z" transform="translate(0.48)"/><path class="cls-26" d="M409,159.87h52.91c1.11,0,2.22,0,3.33,0a1.41,1.41,0,0,1,1.52,1.56c0,1,0,1.94,0,2.92V270.62c0,4.6.54,4.55-4.47,4.54l-106.66-.07h-.83c-3.6,0-3.64,0-3.64-3.66q0-54,0-107.91c0-3.56,0-3.59,3.66-3.6H409Zm15.65,79.19a1.75,1.75,0,0,1,1.17,1.85c-.07,2.09,1,2.65,2.86,2.41a15.32,15.32,0,0,1,1.66,0c3-.08,3-.08,3-3-.06-14.57-.07-29.15-.2-43.72-.06-6.6,1.36-5.68-6-5.82-1.8,0-2.45.62-2.42,2.41.08,4.72,0,9.44,0,14.16,0,.88.36,2-.92,2.59-1.27-.63-2.84-1-3.88-2a5.56,5.56,0,0,0-4.19-1.33c-5.38-.07-9.27,2.49-12,6.92a22.65,22.65,0,0,0-3.05,13.59c.24,4.34,1.29,8.5,4.07,12,4.07,5.16,10.19,6.48,15.83,3.35A11.2,11.2,0,0,0,424.62,239.06ZM384.4,218.68c0,6.37,0,12.75,0,19.12s-1,5.47,5.46,5.52c3.63,0,3.66,0,3.67-3.57,0-13.58,0-27.16,0-40.73,0-6.28,1-5.53-5.87-5.57-3.17,0-3.23.06-3.24,3.21C384.37,204,384.4,211.34,384.4,218.68Z" transform="translate(0.48)"/><path class="cls-25" d="M424.62,239.06a11.12,11.12,0,0,1-4.12,3.41c-5.64,3.14-11.76,1.81-15.83-3.35-2.79-3.53-3.83-7.68-4.07-12a22.94,22.94,0,0,1,3-13.59c2.74-4.43,6.63-7,12-6.92a5.56,5.56,0,0,1,4.19,1.33c1,1,2.61,1.39,3.88,2,1.28-.63.92-1.71.92-2.59,0-4.72.07-9.44,0-14.16,0-1.79.63-2.44,2.42-2.41,7.38.14,6-.78,6,5.82.13,14.57.14,29.14.2,43.72,0,2.91,0,2.91-3,3a15.31,15.31,0,0,0-1.66,0c-1.85.24-2.93-.32-2.86-2.41A1.74,1.74,0,0,0,424.62,239.06Zm.13-13.46c-.09-1.92,0-3.73-.28-5.5a7.24,7.24,0,0,0-6.16-6.34c-2.93-.58-5.81.86-7.42,4a16.57,16.57,0,0,0-.41,14.43,7,7,0,0,0,7.63,4.47,7.31,7.31,0,0,0,6.3-6.24A45.13,45.13,0,0,0,424.75,225.6Z" transform="translate(0.48)"/><path class="cls-25" d="M384.4,218.68c0-7.34,0-14.69,0-22,0-3.15.07-3.22,3.24-3.21,6.91,0,5.85-.71,5.87,5.57.05,13.58,0,27.16,0,40.73,0,3.54,0,3.6-3.67,3.57-6.46,0-5.39.73-5.46-5.52S384.4,225.05,384.4,218.68Z" transform="translate(0.48)"/><path class="cls-26" d="M424.75,225.6a42.69,42.69,0,0,1-.34,4.84,7.31,7.31,0,0,1-6.3,6.24,7,7,0,0,1-7.63-4.47,16.57,16.57,0,0,1,.41-14.43c1.61-3.16,4.49-4.6,7.42-4a7.25,7.25,0,0,1,6.16,6.34C424.72,221.87,424.66,223.69,424.75,225.6Z" transform="translate(0.48)"/><path class="cls-27" d="M175.2,217.33v-57.9c0-1,.06-2,0-2.91-.16-2.05.52-3.22,2.79-3a20.62,20.62,0,0,0,2.08,0H298c.42,0,.83,0,1.25,0,3.6.07,3.66.07,3.66,3.75q0,60.4,0,120.8c0,3.54-.07,3.59-3.83,3.59-12.36,0-24.72-.05-37.08-.05q-40.83,0-81.65.06c-5.65,0-5.12.33-5.12-5.22Q175.18,246.91,175.2,217.33Zm121.58.34h-.25V192.29q0-13.95,0-27.9c0-5.47.19-4.89-5-4.89H186.2c-1,0-1.94.05-2.91,0-1.65-.08-2.16.75-2.14,2.29.06,3.33,0,6.66,0,10V270c0,5.08,0,5.09,4.91,5.09q24.36,0,48.71-.07,29.15,0,58.29,0c3.65,0,3.65-.05,3.71-3.67,0-.83,0-1.67,0-2.5Q296.77,243.28,296.78,217.67Z" transform="translate(0.48)"/><path class="cls-28" d="M296.78,217.67v51.21c0,.83,0,1.67,0,2.5-.06,3.63-.06,3.67-3.71,3.67q-29.15,0-58.29,0-24.36,0-48.71.07c-4.89,0-4.9,0-4.91-5.09V171.78c0-3.33,0-6.66,0-10,0-1.54.49-2.37,2.14-2.29,1,.05,1.94,0,2.91,0H291.53c5.18,0,5-.58,5,4.89q0,14,0,27.9v25.38Zm-75.21-25.76a47.22,47.22,0,0,0-9.62.64c-3,.4-3,.37-3,3.53q0,19.78.06,39.57c0,6.9,0,6.84,6.81,6.37,1.67-.11,2.1-.76,2.08-2.28-.06-4.3,0-8.61,0-12.91,0-3.68.09-3.44,3.43-3.32A25.56,25.56,0,0,0,234.18,221a14.9,14.9,0,0,0,8.11-15.54c-.86-6.92-4.9-11.35-11.71-12.82A29.93,29.93,0,0,0,221.57,191.91Zm44,21.47A17.55,17.55,0,0,0,267,209a1.79,1.79,0,0,0-1.4-2.49c-5-1.7-10.05-2.1-15,.31a10.31,10.31,0,0,0-6.19,9.17c-.22,4.1,2,6.8,5.22,8.82a31.34,31.34,0,0,0,3.71,1.86c1.39.62,2.85,1.08,4.21,1.75,1.75.85,2.88,2.21,2.62,4.3-.23,1.87-1.71,3.05-4.2,3.32a16.2,16.2,0,0,1-8.91-1.49c-1.31-.63-2.1-.34-2.43,1.1a10.26,10.26,0,0,1-.48,2c-.9,2-.36,3,1.71,3.7a25.56,25.56,0,0,0,13.13,1c5.95-1.09,9.35-4.68,9.82-9.75.49-5.25-2-9-7.76-11.46-1.65-.72-3.39-1.23-5-2-2.39-1.16-3.26-2.69-2.8-4.51s2-2.66,4.55-2.88C260.58,211.52,263,212.69,265.56,213.38Z" transform="translate(0.48)"/><path class="cls-27" d="M221.48,191.52a29.87,29.87,0,0,1,9,.77c6.81,1.47,10.86,5.9,11.71,12.82a14.88,14.88,0,0,1-8.11,15.54,25.68,25.68,0,0,1-12.91,2.48c-3.34-.12-3.45-.36-3.43,3.32,0,4.3,0,8.61,0,12.91,0,1.52-.4,2.16-2.08,2.28-6.81.46-6.8.53-6.81-6.37q0-19.78-.06-39.57c0-3.16.05-3.13,3-3.53A46.76,46.76,0,0,1,221.48,191.52Zm-3.73,15.63c0,2.21.06,4.42,0,6.62a1.88,1.88,0,0,0,1.82,2.22,13.55,13.55,0,0,0,10.27-2c3-2.12,3.83-5.25,3.23-8.79s-2.87-5.5-6.26-6.3a16.53,16.53,0,0,0-4.91-.59c-4,.25-4.12.39-4.14,4.3C217.74,204.11,217.75,205.63,217.75,207.15Z" transform="translate(0.48)"/><path class="cls-27" d="M265.56,213.38c-2.58-.69-5-1.85-7.7-1.61-2.55.22-4.1,1.12-4.55,2.88s.41,3.35,2.8,4.51c1.62.78,3.36,1.3,5,2,5.76,2.5,8.25,6.21,7.76,11.46-.47,5.08-3.89,8.67-9.83,9.75a25.46,25.46,0,0,1-13.13-1c-2.07-.72-2.62-1.74-1.71-3.7a10.26,10.26,0,0,0,.48-2c.33-1.44,1.12-1.73,2.43-1.1a16.2,16.2,0,0,0,8.91,1.49c2.48-.27,4-1.44,4.2-3.32.26-2.09-.87-3.44-2.62-4.3-1.36-.67-2.82-1.13-4.21-1.75a31.34,31.34,0,0,1-3.71-1.86c-3.24-2-5.44-4.73-5.22-8.82a10.29,10.29,0,0,1,6.19-9.17c4.9-2.41,9.92-2,15-.31A1.79,1.79,0,0,1,267,209,17.16,17.16,0,0,1,265.56,213.38Z" transform="translate(0.48)"/><path class="cls-28" d="M217.84,207.53c0-1.52,0-3,0-4.55,0-3.91.18-4,4.14-4.3a16.61,16.61,0,0,1,4.91.59c3.39.8,5.66,2.73,6.26,6.3s-.19,6.66-3.23,8.79a13.55,13.55,0,0,1-10.27,2,1.88,1.88,0,0,1-1.82-2.22C217.9,212,217.84,209.74,217.84,207.53Z" transform="translate(0.48)"/></g></svg>