<svg id="Calque_1" data-name="Calque 1" xmlns="http://www.w3.org/2000/svg" viewBox="0 0 226.17 157.8"><defs><style>.cls-1{fill:#cfab8c;}</style></defs><title>boxe</title><path class="cls-1" d="M218,34.49c-7.24-3.24-14.76-5.85-22.17-8.71-29.19-11.26-37.71-7.21-47.24,22.32-.15.47-.79.79-1.22,1.19-8.22-15-17.75-16-28.89-3.33h0c-14.75,24.31-2.91,45.68,7.51,67.16,1.57,3.23,3.69,6.19,5.5,9.3,5.25,9,3,14.65-7,17.17-17.84,4.48-35.7,8.87-53.55,13.3,4.65,20,5.34,21.9,24.58,14.82,31.15-11.46,59.77-7.37,88.16,7.5,3,1.58,7.21,5.64,10.22-1.48,2.74-6.49-.57-8-5.43-9.84-12.88-4.76-25.54-10.12-38.54-14.5-6.68-2.24-5.81-5.45-4-10.61s3.66-7.69,9.83-5.07c13.29,5.64,26.92,10.49,40.36,15.8,3.59,1.42,6.35,2.41,9-1.91,16.06-25.84,27.43-53.43,30.71-83.83C237.35,50.14,230.82,40.22,218,34.49Z" transform="translate(-9.91 -20)"/><path class="cls-1" d="M89.74,128.12c-1.67-4.7-7-26.26-2.19-27.56,5.4-1.45,5.91,4,7,9,1.72,8.16,2.54,16.38,5.08,24.52,1.71,5.49,13.72,3.3,20.64,1.67,5.84-1.38,6.35-5.29,3.56-9.87A199.6,199.6,0,0,1,106,87.7c-5.4-15.47-4.54-30.45,6-43.94,4.81-5.1,3.24-9.21-1.61-13.36-7.6-6.51-16.13-9.65-26-7.51q-17.44,3.76-34.71,8.39C35,35.23,28.42,46.67,31.28,62c.84,4.47,3.92,8.69,2,13.62C20.6,67.89,11.52,72.13,10.14,86.69,8.65,102.36,14.47,115,27.3,124.15a219.74,219.74,0,0,0,43.42,24.14c3.48-.91,7-1.85,10.45-2.71C93.24,142.61,93.69,139.24,89.74,128.12Z" transform="translate(-9.91 -20)"/></svg>