<?xml version="1.0" encoding="utf-8"?>
<!-- Generator: Adobe Illustrator 23.1.0, SVG Export Plug-In . SVG Version: 6.00 Build 0)  -->
<svg version="1.1" id="Calque_1" xmlns="http://www.w3.org/2000/svg" xmlns:xlink="http://www.w3.org/1999/xlink" x="0px" y="0px"
	 viewBox="0 0 474.67 433.78" style="enable-background:new 0 0 474.67 433.78;" xml:space="preserve">
<style type="text/css">
	.st0{fill:#505052;}
</style>
<g>
	<path class="st0" d="M256.63,178.15c20.63-29.78,45.79-42.03,77.37-41.85c50.54,0.29,85.55,28.28,95.57,77.8
		c2.24,11.08,3.4,22.55,3.5,33.85c0.38,46.54-0.17,93.09,0.4,139.62c0.12,10.17-2.43,13.45-12.79,13.06
		c-20.66-0.77-41.38-0.72-62.04,0c-9.64,0.34-12.27-2.59-12.15-12.18c0.53-41.36,0.29-82.74,0.17-124.11
		c-0.02-7.22-0.11-14.56-1.38-21.62c-4.6-25.52-20.14-39.34-42.65-38.63c-22.75,0.72-42.04,18.16-45.35,41.33
		c-0.73,5.09-0.62,10.31-0.63,15.48c-0.04,41.89-0.34,83.78,0.2,125.66c0.13,10.26-1.75,14.68-13.27,14.11
		c-20.12-0.99-40.36-1.02-60.47,0.02c-11.71,0.6-13.33-4.04-13.25-14.22c0.59-72.9,0.67-145.81,0.82-218.71
		c0.05-25.15-0.07-25.15,25.79-25.15c15.51,0,31.06,0.65,46.53-0.23c10.47-0.59,15.33,2.03,13.77,13.29
		C255.99,161.23,256.63,167,256.63,178.15z"/>
	<path class="st0" d="M128.9,271.91c0,38.21-0.33,76.43,0.22,114.64c0.15,10.2-1.63,14.67-13.22,14.12
		c-21.12-1-42.34-0.59-63.5-0.12c-7.99,0.18-10.61-2.1-10.58-10.4c0.3-79.01,0.28-158.02,0.03-237.02
		c-0.02-7.7,1.39-10.98,10.05-10.74c22.19,0.61,44.42,0.69,66.6-0.03c9.66-0.31,10.62,3.86,10.55,11.81
		C128.73,193.42,128.9,232.66,128.9,271.91z"/>
	<path class="st0" d="M85.29,20.04c28.5-0.28,48.23,18.48,48.86,46.45c0.62,27.95-19.89,48.06-49.01,48.04
		c-27.88-0.01-48.41-20.08-48.45-47.35C36.65,39.95,56.89,20.32,85.29,20.04z"/>
</g>
</svg>
