<svg id="Calque_1" data-name="Calque 1" xmlns="http://www.w3.org/2000/svg" viewBox="0 0 174.91 182.02"><defs><style>.cls-1{fill:#cfab8c;}.cls-2{fill:#fdfdfd;}</style></defs><title>pinceau</title><path class="cls-1" d="M139,72.23c-.47,8.24-2.79,14.85-5.55,21.36-1.42,3.36-3.06,6.62-3.81,10.25-2,9.71,5.82,17.1,15.35,14.52a29.25,29.25,0,0,1,6.84-1.22c9.44-.26,15.24,6.65,13.46,15.92a21.3,21.3,0,0,1-1.66,5.72c-12.62,24.63-31.26,43.19-59,47.82-32.06,5.35-61.42-2.89-81.89-29.78-20.9-27.45-23-57.89-7.37-88.73,9.71-19.17,23.31-35.16,45-41.31,25.18-7.15,47.58-1.26,66.9,16.45,2.47,2.26,2.54,3.77.12,6.28-7.24,7.5-14.43,15.12-19.8,24.16-1,1.72-2.52,1.87-4.08,2.37C93.93,79.11,87.41,85.27,85,95.13c-1.81,7.29-5.24,13.24-12,16.87a5.28,5.28,0,0,0-3,6.22c.62,2.88,2.71,4,5.5,4.09,10.06.16,20-.74,29.15-5.24,10.8-5.28,17.35-13.67,18.47-25.88.11-1.16,0-2.33,1-3.19C129.45,83.61,133.7,78.15,139,72.23Z" transform="translate(-5.14 -6.13)"/><path class="cls-1" d="M119.93,69c-1.71-3.79.2-6.25,2.71-9q23.6-25.44,46.86-51.16c2.7-3,4.66-3.93,8.19-.94s2.53,5.3.16,8.29q-21.79,27.59-43.44,55.32c-1.4,1.79-2.5,4.13-5.46,3.49C126.11,74.84,120.25,70.24,119.93,69Z" transform="translate(-5.14 -6.13)"/><path class="cls-1" d="M118.62,95c-2.6,9.78-8.94,16-18.05,19.74-7.5,3-15.44,3.72-23.43,3.88-1.27,0-2.89.34-3.29-1.4-.33-1.45,1-1.84,2-2.45C83,110.45,86.68,103.92,88.72,96,91.39,85.67,99.46,80.4,110,80,113.55,80.75,121,86,118.62,95Z" transform="translate(-5.14 -6.13)"/><path class="cls-1" d="M128.88,77.52c.12,1.48-4.55,7.57-9.77,7.43C116,82,115.24,80.79,111,78c-.6-4.64,5-10,5.37-10.22C118,71,127.15,78.16,128.88,77.52Z" transform="translate(-5.14 -6.13)"/><path class="cls-2" d="M78.24,64a12.29,12.29,0,0,1-12-12.13,12.14,12.14,0,0,1,12.58-12,12.05,12.05,0,0,1-.6,24.1Z" transform="translate(-5.14 -6.13)"/><path class="cls-2" d="M45.67,81.14a12,12,0,1,1,0-24.08,12,12,0,0,1,0,24.08Z" transform="translate(-5.14 -6.13)"/><path class="cls-2" d="M56.44,139.43a11.85,11.85,0,0,1-12.13,11.79,12.14,12.14,0,0,1-12.06-12,12.33,12.33,0,0,1,12.5-12.14A12.06,12.06,0,0,1,56.44,139.43Z" transform="translate(-5.14 -6.13)"/><path class="cls-2" d="M75.67,146a12.32,12.32,0,0,1,12.15,12,12.17,12.17,0,0,1-12.45,12.12A11.84,11.84,0,0,1,63.6,158,12.05,12.05,0,0,1,75.67,146Z" transform="translate(-5.14 -6.13)"/><path class="cls-2" d="M20,104.65a12.07,12.07,0,0,1,24.14-.24,12.22,12.22,0,0,1-12.19,12.41A12.29,12.29,0,0,1,20,104.65Z" transform="translate(-5.14 -6.13)"/></svg>