<svg id="Calque_1" data-name="Calque 1" xmlns="http://www.w3.org/2000/svg" viewBox="0 0 302.37 397.43"><defs><style>.cls-1{fill:none;stroke:#1d1d1b;stroke-miterlimit:10;}</style></defs><defs>
<style>
    .cls-1 {
    stroke-dasharray: 5800;
    stroke-dashoffset: 0;
    -webkit-animation: dash 20s linear forwards;
    -o-animation: dash 20s linear forwards;
    -moz-animation: dash 20s linear forwards;
    animation: dash 20s linear forwards;
}
@-webkit-keyframes dash {
    from {
        stroke-dashoffset: 5800;
        }
        to {
        stroke-dashoffset: 0;
        }
}
</style>
</defs>
<title>S</title><path class="cls-1" d="M390.24,156.82A86.34,86.34,0,0,1,387,174.11c3-12.38-9.65-50.58-55.9-48.1C393.91,111.83,389.92,158.31,390.24,156.82Z" transform="translate(-162.6 -109.79)"/><path class="cls-1" d="M387.14,453.67c-7.76,5.57-14.28,12-23.86,16.92,0,0-34.26,16.18-45.07,20,1.14-.63,35.46-20.94,53.24-42.78,0,0,0,0,0,0,17.38-21.37,31.36-52.14,19.83-90.9A63.75,63.75,0,0,0,381,336.39c-3.92-5.14-9.61-10.79-23.79-18.43h0c-13.1-7-33.47-15.78-66.38-27.37-84.9-29.86-74.76-96.2-73.37-104.26-.76,24.66,15.68,50.54,49.44,72.11l.25.16a172.36,172.36,0,0,0,22.74,12.54l.29.14A298.51,298.51,0,0,0,327.69,286c46.82,15,74.55,29.76,88.42,42.44a56,56,0,0,1,17.71,33.84C439.67,405.77,410.3,436.56,387.14,453.67Z" transform="translate(-162.6 -109.79)"/><path class="cls-1" d="M389.73,163.16c-.34,1.57-.76,3.2-1.23,4.88,3.62-14.38,5.15-46.13-53.79-42.07-2.21.14-4.5.35-6.88.6-85.51,9.19-98.68,76.57-95.43,80.47-1.14-.91-28-22.84-1-55.39,27.55-33.26,84.77-40.6,84.77-40.6S403.34,101.21,389.73,163.16Z" transform="translate(-162.6 -109.79)"/><path class="cls-1" d="M301.79,246.36s34.6-26.92,72.6-20,53.19,29,53.19,29S408.48,239,361.77,240.2c-.82,0-1.64.08-2.45.17a357.51,357.51,0,0,0-46.76,10.1C310,251.24,301.79,246.36,301.79,246.36Z" transform="translate(-162.6 -109.79)"/><path class="cls-1" d="M448.28,401.92c-27.65,37.61-75.62,64.27-86.2,69.33,4.05-2,14.5-9.79,25.06-17.58,23.16-17.11,52.53-47.9,46.68-91.39a56,56,0,0,0-17.71-33.84C402.24,315.76,374.51,301,327.69,286a298.51,298.51,0,0,1-37.54-14.72l-.29-.14a216,216,0,0,1-22.74-12.54l-.25-.16c-33.76-21.57-50.2-47.45-49.44-72.11.08-.38.13-.64.14-.74,0-.63,0-.16,0-2.15.26-8.59,1.74-10.89,6.82-21.89-5.82,13.15-13,38.66,32.19,63.92C313,257,391.66,272.6,424.63,291.75c1.13.66,2.28,1.28,3.45,1.89C460.15,310.37,479.06,360.08,448.28,401.92Z" transform="translate(-162.6 -109.79)"/><path class="cls-1" d="M371.46,447.78s0,0,0,0c-9.41,13.08-19.69,20.76-35.86,32.63-.47.34-11.06,7.61-11.62,7.82-49,18.63-84.68,25.13-127.13,10.28-35.51-12.43-44.21-69.09-20.21-125.5,0,0-.06.2-.13.44h0C166.71,403.38,148,479.07,209.11,487.7a143.44,143.44,0,0,0,22.43,1.4c53.19-.74,95.31-30,108.82-42.86,13.84-13.17,80.23-83.58,16.5-129.13,0,0-.06.71.32.85h0c14.18,7.64,19.87,13.29,23.79,18.43a63.75,63.75,0,0,1,10.3,20.49C402.82,395.64,388.84,426.41,371.46,447.78Z" transform="translate(-162.6 -109.79)"/><path class="cls-1" d="M199.83,384.52C167.72,471.34,229,488.4,231.54,489.1a143.44,143.44,0,0,1-22.43-1.4C148,479.07,166,400.26,176.5,373.49h0c30-62.85,81.66-99,81.23-99.08l10.33,6.22S223.44,320.65,199.83,384.52Z" transform="translate(-162.6 -109.79)"/><path class="cls-1" d="M232.4,207c-4.47-3.75-27.52-30.27,3.3-60.14,5-4.87-14.73,41-3.56,55.16C232.24,202.18,231.48,205.42,232.4,207Z" transform="translate(-162.6 -109.79)"/><path class="cls-1" d="M258,274.53c1.07.65,8.21,5,9.86,6a.22.22,0,0,1,0,.35l-6.71,6.61a.21.21,0,0,1-.28,0l-10.67-6.63a.23.23,0,0,1,0-.37l7.52-5.93A.23.23,0,0,1,258,274.53Z" transform="translate(-162.6 -109.79)"/><path class="cls-1" d="M231.54,489.1c-4.21-.24-34.41,1.57-49-12.76,2.52,2.18,24.55,9.4,34.45,5.94A53.76,53.76,0,0,0,231.54,489.1Z" transform="translate(-162.6 -109.79)"/><path class="cls-1" d="M424.23,299.87c16,8.69,67.78,62.57-11.13,137.45,0,0,57.62-38.22,50.81-88.61-4-17.3-4.85-50.13-70.15-70.63C378.23,272.16,293,246.9,264.13,229.53c16.82,11.67,25.24,22.05,112.36,48.81C390.54,282.65,415,292.88,424.23,299.87Z" transform="translate(-162.6 -109.79)"/><path class="cls-1" d="M259.58,129.42S344,97.94,381.16,125.8C381.16,125.8,342.74,88.61,259.58,129.42Z" transform="translate(-162.6 -109.79)"/><path class="cls-1" d="M463.91,348.7c-.36-1.56-.7-3.26-1.06-5.06s-.72-3.73-1.18-5.56c-4.13-18-14.3-43.17-67.91-60-3.33-1.27-9.89-3.44-18.42-6.22-19.31-6.49-41.13-13.36-62.78-21.39a359.22,359.22,0,0,1,46.76-10.1c.81-.09,1.63-.15,2.45-.17,46.71-1.21,65.81,15.17,65.81,15.17s-15.19-22.11-53.19-29-72.59,20-72.6,20a369.66,369.66,0,0,1-45.2-20.9c-12.11-6.77-20.46-13.56-26.08-20.13a24.28,24.28,0,0,0,1.89,1.7,3.3,3.3,0,0,1-.35-1,11.85,11.85,0,0,1,0-2.72c.07-.68.16-1.17.13-1.23,2-16.52,22-67.57,95.68-75.48,2.38-.26,4.67-.47,6.88-.61l1-.06c42.45.22,54.13,36.24,51.27,48.2.09-.34.95-3.17,1.77-7,.37-1.35.71-2.67,1-3.95,3.88-17.67-.44-29.49-8.59-37.37h0l-.25-.22c-6.65-6.33-15.79-10.08-25.11-12.26a99.34,99.34,0,0,0-32.08-2.76c-4.65.16-7.55.49-7.55.49s-29.68,3.81-56.59,18.37h0a101,101,0,0,0-23.86,17.46l0,0a58.21,58.21,0,0,0-11.31,14.68v0l0,0c-.64,1.24-1.21,2.46-1.7,3.66-3.71,8-4.87,10.66-5.1,18.19,0,2,0,1.52,0,2.15,0,.1-.06.36-.14.75-1.17,6.81-8.6,55.29,40.46,88.16l-.16-.1c.43.06-51.21,36.23-81.23,99.08l.13-.43c-24,56.41-15.36,113.24,20.21,125.49,38.65,13.3,73.1,10.15,121.37-7.94,34.63-11.31,73.66-35.62,94.92-53.31l0,0S470.72,399.09,463.91,348.7ZM231.54,489.09a62.21,62.21,0,0,1-7.4-2.84l-.12-.05h0c-16-7.62-49.75-32.51-24.17-101.68,17.9-48.41,47.84-83.1,61.3-97.07h0l6.71-6.62v0l.21-.19-.18-.11a156.89,156.89,0,0,0,22.92,10.08c32.91,11.59,53.28,20.32,66.38,27.37h0c1.05.57,2.05,1.13,3,1.68,57.94,45.59-6.27,113.68-19.86,126.61S284.73,488.36,231.54,489.09Z" transform="translate(-162.6 -109.79)"/></svg>