<svg id="Calque_1" data-name="Calque 1" xmlns="http://www.w3.org/2000/svg" viewBox="0 0 204.25 204.28"><defs><style>.cls-1{fill:#4d4a4a;}.cls-2{fill:#2b89ca;}.cls-3{fill:#fdfeff;}</style></defs><title>trello</title><path class="cls-1" d="M211.62,117.3q-.06-32.2-.21-64.41c.08-8.14.2-16.29.21-24.43,0-13.81-7.84-21.72-21.52-21.73q-34.42,0-68.85,0-46.89,0-93.79,0C16.61,6.77,7.85,14.68,7.5,25c-.25,7,.07,14,.14,20.94-.07,1.49-.18,3-.18,4.48Q7.41,120,7.4,189.7c0,13.39,8,21.3,21.49,21.3H190.15c13.67,0,21.5-7.95,21.5-21.8Q211.64,153.25,211.62,117.3ZM96.33,164.12c-.44,5.83-4.15,9.55-10,9.6q-21.19.17-42.4,0c-6.6-.06-10.06-4.16-10.07-11.56q-.06-42.65-.05-85.3c0-2-.12-4-.18-6v-13c-2-5.58-.9-11.29-.67-17a.67.67,0,0,1,.42-.06,1.76,1.76,0,0,1,.41.28,12,12,0,0,1,8.07-8.07l-.6-.66c.8-.69,1,0,1.35.55l43-.06c1-1,1.94-1.84,2.73.16,6,2,8.49,6.22,8.14,12.46-.18,3.11.1,6.24.17,9.36q-.11,52.36-.22,104.74C96.36,161.13,96.44,162.63,96.33,164.12Zm88.92-53.81c0,9-3.39,12.4-12.34,12.41q-19.23,0-38.44,0c-8.25,0-11.76-3.55-11.8-11.91q-.14-28-.21-55.91c.07-3.12.35-6.25.17-9.36-.23-4,.73-7.23,3.08-9.53a12.69,12.69,0,0,1,5.06-2.93,2.79,2.79,0,0,1,.54-1,.86.86,0,0,1,.14-.13.74.74,0,0,1,.29-.13c.56-.12,1.16.47,1.76,1l43,.06c.32-.51.55-1.24,1.35-.55l-.61.66a12,12,0,0,1,8.08,8.07l.85-.22c.21,5.66,1.33,11.37-.69,17q0,7,0,14Z" transform="translate(-7.4 -6.71)"/><path class="cls-2" d="M125.71,36a12.69,12.69,0,0,1,5.06-2.93h0A12.94,12.94,0,0,0,125.71,36Z" transform="translate(-7.4 -6.71)"/><path class="cls-3" d="M96.37,159.63c0,1.5.07,3,0,4.49-.44,5.83-4.15,9.55-10,9.6q-21.19.17-42.4,0c-6.6-.06-10.06-4.16-10.07-11.56q-.06-42.65-.05-85.3c0-2-.12-4-.18-6v-13q.07-8.37.16-16.73a12,12,0,0,1,8.07-8.07l.39.05.36-.16,43-.06,2.73.16c6,2,8.49,6.22,8.14,12.46-.18,3.11.1,6.24.17,9.36Q96.48,107.26,96.37,159.63Z" transform="translate(-7.4 -6.71)"/><path class="cls-3" d="M185.44,57.88q0,7,0,14l-.18,38.43c0,9-3.39,12.4-12.34,12.41q-19.23,0-38.44,0c-8.25,0-11.76-3.55-11.8-11.91q-.14-28-.21-55.91c.07-3.12.35-6.25.17-9.36-.23-4,.73-7.23,3.08-9.53a12.69,12.69,0,0,1,5.06-2.93l2.73-.16,43,.06.36.16.38-.05a12,12,0,0,1,8.08,8.07Q185.37,49.51,185.44,57.88Z" transform="translate(-7.4 -6.71)"/><path class="cls-1" d="M33.77,41.15q-.09,8.37-.16,16.73c-2-5.58-.9-11.29-.67-17a.67.67,0,0,1,.42-.06A1.76,1.76,0,0,1,33.77,41.15Z" transform="translate(-7.4 -6.71)"/><path class="cls-1" d="M185.44,57.88q-.08-8.37-.16-16.73l.85-.22C186.34,46.59,187.46,52.3,185.44,57.88Z" transform="translate(-7.4 -6.71)"/><path class="cls-1" d="M88.28,33.07l-2.73-.16C86.52,31.93,87.49,31.07,88.28,33.07Z" transform="translate(-7.4 -6.71)"/><path class="cls-1" d="M133.5,32.91l-2.73.16a2.79,2.79,0,0,1,.54-1,.86.86,0,0,1,.14-.13.74.74,0,0,1,.29-.13C132.3,31.74,132.9,32.33,133.5,32.91Z" transform="translate(-7.4 -6.71)"/><path class="cls-1" d="M42.59,33l-.36.16-.39-.05-.6-.66C42,31.73,42.27,32.46,42.59,33Z" transform="translate(-7.4 -6.71)"/><path class="cls-1" d="M177.81,32.42l-.61.66-.38.05-.36-.16C176.78,32.46,177,31.73,177.81,32.42Z" transform="translate(-7.4 -6.71)"/></svg>